<?xml version="1.0" encoding="UTF-8" standalone="no"?>
<svg width="881px" height="740px" viewBox="0 0 881 740" version="1.1" xmlns="http://www.w3.org/2000/svg" xmlns:xlink="http://www.w3.org/1999/xlink">
    <!-- Generator: Sketch 39.1 (31720) - http://www.bohemiancoding.com/sketch -->
    <title>dastruct</title>
    <desc>Created with Sketch.</desc>
    <defs></defs>
    <g id="Page-1" stroke="none" stroke-width="1" fill="none" fill-rule="evenodd">
        <g id="dastruct" transform="translate(44.000000, 37.000000)">
            <polygon id="DastructExplosion" fill="#112E40" points="289.720706 184.768966 232.276083 149.906897 238.520064 295.165517 0 208.010345 173.582665 355.593103 78.6741573 403.237931 202.304976 435.775862 11.2391653 534.551724 237.271268 518.282759 236.022472 674 332.179775 538.037931 402.11236 612.410345 419.595506 545.010345 549.470305 637.975862 531.987159 545.010345 778 658.893103 574.446228 489.231034 731.794543 416.02069 558.211878 397.427586 733.043339 267.275862 488.279294 316.082759 578.192616 139.448276 439.576244 241.710345 440.82504 0 330.930979 210.334483"></polygon>
            <g id="Dastruct-Tree" transform="translate(253.000000, 202.000000)">
                <g id="Node" transform="translate(0.000000, 140.226804)">
                    <path d="M59.71875,84.4175258 L106.154432,11.5565218 C109.667841,6.04372483 113.18125,0.530927835 113.18125,0.530927835" id="Line" stroke="#FFFFFF" stroke-width="10" stroke-linecap="square"></path>
                    <path d="M45.5,167.773196 C70.6289561,167.773196 91,148.756837 91,125.298969 C91,101.841101 70.6289561,82.8247423 45.5,82.8247423 C20.3710439,82.8247423 0,101.841101 0,125.298969 C0,148.756837 20.3710439,167.773196 45.5,167.773196 Z" id="Oval" stroke="#82CFFF" stroke-width="7" fill="#112E40"></path>
                </g>
                <g id="Node" transform="translate(216.000000, 224.226804) scale(-1, 1) translate(-216.000000, -224.226804) translate(159.000000, 140.226804)">
                    <path d="M59.71875,84.4175258 L113.18125,0.530927835" id="Line" stroke="#FFFFFF" stroke-width="10" stroke-linecap="square"></path>
                    <ellipse id="Oval" stroke="#82CFFF" stroke-width="7" fill="#112E40" cx="45.5" cy="125.298969" rx="45.5" ry="42.4742268"></ellipse>
                </g>
                <g id="XNode" transform="translate(64.812500, 0.000000)">
                    <path d="M0.1875,0 C12.1540843,6.08788188e-15 21.1982695,25.6318272 36.1875,35 C39.7209524,37.2083851 48.4164127,41.1683942 53.1875,40.9123726 C79.5811217,39.4960631 74.9246309,32.7990439 84.1875,34 C125.1375,39.3092784 79.65,81.8247423 79.65,81.8247423" id="Path-2" stroke="#F6FCFF" stroke-width="10"></path>
                    <path d="M71.6875,155.092784 C96.8164561,155.092784 117.1875,136.076424 117.1875,112.618557 C117.1875,89.160689 96.8164561,70.1443299 71.6875,70.1443299 C46.5585439,70.1443299 26.1875,89.160689 26.1875,112.618557 C26.1875,136.076424 46.5585439,155.092784 71.6875,155.092784 Z" id="Oval" stroke="#82CFFF" stroke-width="7" fill="#112E40"></path>
                </g>
            </g>
            <polygon id="DastructExplosion" stroke="#82CFFF" stroke-width="18" points="289.720706 184.768966 232.276083 149.906897 238.520064 295.165517 0 208.010345 173.582665 355.593103 78.6741573 403.237931 202.304976 435.775862 11.2391653 534.551724 237.271268 518.282759 236.022472 674 332.179775 538.037931 402.11236 612.410345 419.595506 545.010345 549.470305 637.975862 531.987159 545.010345 778 658.893103 574.446228 489.231034 731.794543 416.02069 558.211878 397.427586 733.043339 267.275862 488.279294 316.082759 578.192616 139.448276 439.576244 241.710345 440.82504 0 330.930979 210.334483"></polygon>
        </g>
    </g>
</svg>